<svg id="Capa_1" enable-background="new 0 0 512.001 512.001" viewBox="0 0 512.001 512.001" xmlns="http://www.w3.org/2000/svg"><g><g><path d="m191.888 0h-40.139c-57.437 0-103.999 46.562-103.999 103.999v114.336h248.137v-114.336c0-57.437-46.562-103.999-103.999-103.999z" fill="#d1a191"/><path d="m215.527 2.695c-46.045 10.717-80.356 52.006-80.356 101.305v114.343h-87.421v-114.344c0-57.432 46.554-103.999 103.999-103.999h40.134c8.134 0 16.044.931 23.644 2.695z" fill="#c88b7c"/><path d="m279.812 242.645h-215.987c-17.344 0-31.404-14.06-31.404-31.404 0-17.344 14.06-31.404 31.404-31.404h215.986c17.344 0 31.404 14.06 31.404 31.404 0 17.344-14.06 31.404-31.403 31.404z" fill="#eaac9d"/><path d="m262.737 127.186v125.421c0 50.13-40.096 91.683-90.224 92.057-50.529.377-91.612-40.473-91.612-90.915v-126.563c0-.25.001-45.705.003-45.954-.001 0 70.355 81.757 181.833 45.954z" fill="#ffddce"/><path d="m198.907 340.513c-8.332 2.633-17.199 4.086-26.4 4.16-50.528.373-91.606-40.47-91.606-90.923v-172.509s19.546 22.712 54.353 38.955v133.554c-.001 40.73 26.76 75.177 63.653 86.763z" fill="#ffcbbe"/><path d="m171.819 258.956c-14.846 0-28.803-5.781-39.301-16.279-3.017-3.018-3.017-7.909.001-10.927 3.016-3.018 7.908-3.018 10.927 0 7.578 7.579 17.655 11.753 28.373 11.753s20.795-4.174 28.373-11.753c3.019-3.018 7.91-3.018 10.928 0 3.017 3.018 3.017 7.91-.001 10.927-10.497 10.498-24.455 16.279-39.3 16.279z" fill="#e28086"/><g fill="#687780"><path d="m148.094 198.84c-4.268 0-7.726-3.459-7.726-7.726v-18.366c0-4.267 3.459-7.726 7.726-7.726s7.726 3.459 7.726 7.726v18.366c.001 4.267-3.458 7.726-7.726 7.726z"/><path d="m195.542 198.84c-4.268 0-7.726-3.459-7.726-7.726v-18.366c0-4.267 3.459-7.726 7.726-7.726s7.726 3.459 7.726 7.726v18.366c.001 4.267-3.458 7.726-7.726 7.726z"/></g></g><g><path d="m440.977 189.589c-14.618 0-27.383 7.908-34.271 19.673-16.125-25.209-44.346-41.936-76.491-41.936-50.126 0-90.761 40.635-90.761 90.761v105.317h161.829v22.262h79.39v-156.382c-.001-21.923-17.773-39.695-39.696-39.695z" fill="#7a8a93"/><path d="m369.894 176.446c-9.115 4.442-17.38 10.377-24.474 17.47-16.427 16.427-26.585 39.112-26.585 64.178v105.311h-79.382v-105.311c0-25.066 10.158-47.75 26.585-64.178 16.415-16.427 39.112-26.585 64.178-26.585 14.226 0 27.692 3.283 39.678 9.115z" fill="#687780"/><path d="m467.252 409.976h-215.986c-17.344 0-31.404-14.06-31.404-31.404 0-17.344 14.06-31.404 31.404-31.404h215.986c17.344 0 31.404 14.06 31.404 31.404 0 17.344-14.06 31.404-31.404 31.404z" fill="#eaac9d"/><path d="m450.177 306.935v113.003c0 50.13-40.096 91.683-90.224 92.057-50.529.377-91.612-40.473-91.612-90.915v-114.145c0-.25.001-.5.003-.749.23-28.534 31.106-46.049 56.065-32.218 10.326 5.722 22.208 8.98 34.85 8.98 28.292 0 52.78-16.317 64.534-40.059 16.305 16.428 26.384 39.057 26.384 64.046z" fill="#ffddce"/><path d="m385.985 507.938c-8.232 2.581-16.965 3.988-26.029 4.061-50.529.379-91.615-40.475-91.615-90.918v-114.892c.22-27.631 29.185-44.927 53.685-33.441v148.332c0 40.83 26.909 75.36 63.959 86.858z" fill="#ffcbbe"/><path d="m359.258 426.287c-14.845 0-28.802-5.781-39.3-16.279-3.017-3.018-3.017-7.909.001-10.927 3.017-3.018 7.909-3.017 10.927 0 7.578 7.579 17.655 11.753 28.372 11.753 10.718 0 20.795-4.174 28.373-11.753 3.017-3.017 7.909-3.018 10.927 0 3.018 3.017 3.018 7.909.001 10.927-10.498 10.498-24.455 16.279-39.301 16.279z" fill="#e28086"/><g fill="#687780"><path d="m335.535 366.171c-4.268 0-7.726-3.459-7.726-7.726v-18.366c0-4.267 3.459-7.726 7.726-7.726 4.268 0 7.726 3.459 7.726 7.726v18.366c0 4.267-3.459 7.726-7.726 7.726z"/><path d="m382.983 366.171c-4.268 0-7.726-3.459-7.726-7.726v-18.366c0-4.267 3.459-7.726 7.726-7.726 4.268 0 7.726 3.459 7.726 7.726v18.366c0 4.267-3.459 7.726-7.726 7.726z"/></g></g><g><path d="m156.553 505.892c-15.286 0-30.192-6.379-39.875-17.065-2.865-3.162-2.625-8.048.537-10.914 3.16-2.865 8.047-2.626 10.914.537 6.803 7.507 17.429 11.988 28.425 11.988 12.287 0 20.285-7.662 21.573-14.871 1.339-7.499-4.396-14.198-15.736-18.38-15.059-5.554-28.423-11.503-28.984-11.754-.372-.166-.73-.361-1.071-.584-8.842-5.765-13.397-15.881-11.886-26.402 1.626-11.328 9.981-20.578 21.806-24.14 24.456-7.371 44.671 9.305 45.521 10.018 3.267 2.746 3.688 7.62.943 10.886-2.739 3.26-7.597 3.686-10.862.963-.301-.245-14.89-11.968-31.145-7.071-6.094 1.836-10.193 6.15-10.967 11.54-.63 4.384 1.075 8.437 4.575 10.95 2.792 1.228 14.636 6.38 27.419 11.095 14.494 5.346 28.83 17.505 25.601 35.595-2.813 15.74-18.628 27.609-36.788 27.609z" fill="#e28086"/></g><g><path d="m56.663 505.892c-4.201 0-7.959-2.65-9.365-6.614l-33.523-96.577c-1.399-4.031.734-8.434 4.766-9.833 4.027-1.399 8.434.735 9.832 4.766l28.177 81.173 26.873-80.896c1.345-4.051 5.721-6.243 9.768-4.897 4.049 1.346 6.242 5.719 4.896 9.768l-31.997 96.32c-1.377 4.054-5.133 6.762-9.36 6.79-.022 0-.044 0-.067 0z" fill="#e28086"/></g></g></svg>